<svg xmlns="http://www.w3.org/2000/svg" id="Calque_1" viewBox="35.17 65.99 213.13 151.49"><defs><style>.cls-1{fill:#00e8e2;stroke-width:0px;}</style></defs><path class="cls-1" d="M238.84,69.8c-16.32.66-33.2,7.41-49.05,19.66-10.66,8.24-17.66,16.44-19.83,19.12l-8.1,1.8c-5.6,1.26-10.68,3.94-14.71,7.78-2.8,2.66-5.32,5.72-7.31,8.87-3.78,5.99-7.06,15.7-7.2,16.11l-1.31,3.92,13.77.34-1.27,2.14.08.93c.85,5.01,3.2,9.55,6.78,13.13,3.59,3.59,8.13,5.93,13.13,6.78l.93.08,2.14-1.27.34,13.77,3.92-1.31c.41-.14,10.12-3.42,16.11-7.2,3.15-1.98,6.21-4.51,8.87-7.31,3.83-4.03,6.52-9.11,7.78-14.71l1.8-8.1c2.68-2.17,10.88-9.17,19.12-19.83,12.25-15.84,19-32.73,19.66-49.05l3.81-9.46-9.46,3.81ZM182.45,154.93c5.57,0,12.16-3.48,15.89-5.47l-.36,1.63c-1.01,4.51-3.17,8.61-6.25,11.84-2.32,2.44-4.98,4.63-7.71,6.35-3.15,1.99-7.67,3.9-10.89,5.14l-.56-14.19-8.61,3.4c-3.25-.74-6.2-2.37-8.57-4.74-2.37-2.37-4-5.32-4.74-8.57l3.4-8.61-14.19-.56c1.24-3.21,3.15-7.73,5.14-10.89,1.72-2.72,3.92-5.39,6.35-7.71,3.23-3.07,7.33-5.23,11.84-6.24l1.63-.36c-1.99,3.73-5.47,10.32-5.47,15.89,0,0,33.75-53.69,79.01-55.92-2.24,45.26-55.92,79.01-55.92,79.01Z"/><path class="cls-1" d="M208.9,118.39c3.59-3.59,3.59-9.41,0-13s-9.41-3.59-13,0-3.59,9.41,0,13c3.59,3.59,9.41,3.59,13,0Z"/><path class="cls-1" d="M59.56,188.65c2.08,0,3.1-1.06,3.1-2.76,0-1.57-.92-2.62-3-2.62h-5.58v5.38s5.48,0,5.48,0Z"/><path class="cls-1" d="M59.97,192.67h-5.89v6.16h5.89c2.45,0,3.54-1.29,3.54-3.1,0-1.63-1.02-3.06-3.54-3.06Z"/><path class="cls-1" d="M140.59,156.64l-12.57,8.64-92.85,4.95v42.3l111.29,4.95,11.69-43.63c-4.18-1.25-7.97-3.48-11.09-6.6s-5.19-6.62-6.46-10.61ZM60.68,202.98h-11.24s0-23.83,0-23.83h10.86c4.19,0,7.08,2.28,7.08,6.2,0,2.59-1.12,4.05-2.48,4.87v.14c1.91.89,3.37,2.55,3.37,5.76,0,4.36-2.93,6.88-7.59,6.88ZM72.12,202.98v-23.83s4.66,0,4.66,0v19.65h11v4.19s-15.66,0-15.66,0ZM95.67,202.98h-4.7s0-23.83,0-23.83h4.7v23.83ZM117.77,183.37h-7.01s0,19.61,0,19.61h-4.7v-19.61h-7.01v-4.22s18.73,0,18.73,0v4.22ZM129.21,203.29c-6.2,0-9.5-3.23-9.74-8.17h4.73c.21,2.69,2.08,4.02,5.01,4.02,3.41,0,4.83-1.12,4.83-2.93,0-1.6-1.02-2.45-3.27-2.93l-3.47-.75c-4.12-.88-7.05-2.62-7.05-6.95,0-4.02,3.47-6.74,8.99-6.74s9.16,3.1,9.19,7.56h-4.73c-.14-1.84-1.46-3.37-4.53-3.37-2.86,0-4.12,1.09-4.12,2.55,0,1.23.75,2.11,3.06,2.62l3.23.68c4.43.92,7.49,2.86,7.49,7.22,0,4.26-2.96,7.18-9.64,7.18Z"/></svg>