<?xml version="1.0" encoding="UTF-8"?><svg id="Calque_1" xmlns="http://www.w3.org/2000/svg" viewBox="0 0 283.46 283.46"><defs><style>.cls-1,.cls-2,.cls-3{stroke-width:0px;}.cls-2{fill:#f8f8f8;}.cls-3{fill:#00ebe2;}</style></defs><path class="cls-1" d="M183.64,115.22v-5.12h-80.59v5.12h-35.02v17.41l23.56,23.42h11.46v.24c0,15.3,12.57,40.22,26.87,40.57.76.02,1.44.03,2.1.04v.15c0,7.92-5.99,14.96-12.89,19.3v12.01h44.66v-12.01c-6.9-4.35-12.89-11.38-12.89-19.3v-1.44c18.74-4.04,32.75-19.62,32.75-39.31v-2.53l21.26-21.13v-17.41h-21.26ZM103.04,148.06h-8.16l-18.86-18.75v-6.09h27.02v24.83ZM196.89,129.31l-13.26,13.18v-19.26h13.26v6.09Z"/><path class="cls-1" d="M138.12,174.56v22.48c0,7.92,5.99,14.96,12.89,19.3v12.01h-44.66v-12.01c6.9-4.35,12.89-11.38,12.89-19.3v-22.48h18.88Z"/><path class="cls-3" d="M118.54,201.73c-1.77,5.97-6.68,11.15-12.19,14.62v12.01h43.08v-12.01c-5.5-3.47-9.4-8.2-10.61-14.62-3.27.73-6.65,1.13-10.13,1.13s-6.88-.4-10.15-1.13Z"/><path class="cls-3" d="M88.39,110.1h80.59v46.46c0,22.24-18.06,40.3-40.3,40.3h0c-22.24,0-40.3-18.06-40.3-40.3v-46.46h0Z"/><path class="cls-2" d="M134.64,163.35v-36.23h-6.85c-3.17,3.16-7.25,5.39-11.82,6.28v7.6h6.77v22.35h-6.77v9.48h25.45v-9.48h-6.77Z"/></svg>