<?xml version="1.0" encoding="UTF-8"?><svg id="Calque_1" xmlns="http://www.w3.org/2000/svg" viewBox="0 0 283.46 283.46"><defs><style>.cls-1,.cls-2,.cls-3,.cls-4{stroke-width:0px;}.cls-2{fill:#1d1d1b;}.cls-3{fill:#fff;}.cls-4{fill:#00ebe2;}</style></defs><path class="cls-2" d="M160.19,91.9l-12.13-1.03-3.75,69.4,3.94,66.35s10.91-.8,11.94-.89c29.22-2.42,54.75-29.56,54.75-66.36,0-36.79-24.64-65.11-54.75-67.48Z"/><ellipse class="cls-4" cx="144.31" cy="158.76" rx="55.98" ry="68.04"/><ellipse class="cls-3" cx="144.31" cy="158.76" rx="38.6" ry="52.52"/><ellipse class="cls-4" cx="144.31" cy="158.76" rx="22.63" ry="37.21"/><ellipse class="cls-3" cx="144.31" cy="158.76" rx="10.71" ry="19.61"/><polygon class="cls-4" points="71.7 138.69 68.69 130.87 49.61 125.37 52.62 133.19 45.91 138.21 65 143.71 71.7 138.69"/><polygon class="cls-1" points="49.24 130.11 48.24 133.58 144.21 161.04 144.19 157.28 49.24 130.11"/></svg>