<svg xmlns="http://www.w3.org/2000/svg" id="Calque_1" viewBox="79.28 111.96 128.97 88.31"><defs><style>.cls-1,.cls-2,.cls-3{stroke-width:0px;}.cls-2{fill:#fff;}.cls-3{fill:#00ebe2;}</style></defs><path class="cls-1" d="M198.08,148.2s6.69-13.66-5.12-24.68c-7.58-7.07-23.35-6.94-23.35-6.94,0,0-.24-.33-4.13-2.06-6.48-2.88-20.15-1.57-23.48-1.5-2.59.05-6.25-1.91-20.56-.62-10.23.93-10.71,15.71-10.71,15.78,0,0-9.72-1.36-14.73,9.03-5.12,10.62,1.33,17.64,1.33,17.64,0,0-7.44,8,.26,19.7,6.66,10.11,21,11.38,26.38,11.21-.02.21,3.76-.62,3.74-.41-.37,6.02,1.34,15.16,7.08,14.92,42.18-1.78,43.09-13.76,43.09-13.76,19.83-.78,30.37-12.9,30.37-22.24,0-14.35-10.01-16.03-10.18-16.08Z"/><path class="cls-2" d="M180.69,149.11s5.9-11.85-4.52-21.4c-6.69-6.13-20.55-5.25-20.55-5.25,0,0-.28-1.05-3.72-2.55-5.72-2.5-17.87-2.78-18.77-.15s-3.46-3.4-20.13-1.68c-9.02.93-9.46,13.62-9.46,13.68,0,0-10.29-1.71-14.72,7.3-4.52,9.21-4.31,16.89-4.31,16.89,0,0-.2,6.59,5.56,17.36,6.3,11.8,18.23,11.76,22.99,11.62-.02.18,5.49-3.78,5.48-3.6-.33,5.22,4.3,12.87,9.37,12.79,33.58-.48,34.94-11.79,34.94-11.79,17.51-.68,26.83-11.19,26.83-19.28,0-12.44-8.84-13.9-8.99-13.94Z"/><path class="cls-3" d="M183.32,148.84s6.16-13.12-5.12-24.68c-10.23-10.49-20.56-5.53-20.56-5.53,0,0-15.2-11.88-26.53-1.08,0,0-11.29-10.82-27.1-1.17-8.77,5.35-8.03,12.37-8.02,12.44,0,0-9.72-1.36-14.73,9.03-5.12,10.62,1.33,17.64,1.33,17.64,0,0-7.44,8,.26,19.7,7.36,11.18,21.48,9.19,24.17,9.04.63-4.97,3.03-10.22,7.34-14.46-1.77-1.52-3.57-3.94-4.57-7.83-.07-.25-.12-.5-.17-.75-1.22.03-3.08.12-5.92.35-7.56.6-8.97,5.4-9.11,5.94l-5.96-1.33c.09-.4,2.24-9.73,14.59-10.7,2.66-.21,4.72-.35,6.35-.38.36-1.85,1-3.44,1.66-4.69-1.12-.92-2.28-2.25-3.16-4.15-1.83,1.31-4.17,2.32-6.97,2.32-.35,0-.71-.02-1.08-.05-7.84-.71-11.3-2.99-11.67-3.24l3.49-5.02s2.6,1.62,8.73,2.17c3.21.29,5.34-2.24,6.07-3.26.03-9.45,7.73-14.05,8.07-14.24l1.54,2.64,1.56,2.63c-.22.13-5.25,4.12-4.66,9.48.61,5.54,6.1,8.16,6.1,8.16,0,0-6.59,11.47.14,18.05,2.72-1.65,5.88-2.95,9.53-3.76l.98-.22c-.33-1.28-1.2-5.1-.79-8.35.18-1.47.37-2.55.54-3.32-2.76-4.91-4.99-13.93,2.94-19.88,7.11-5.33,19.69-7.43,27.47-4.59,4.88,1.78,6.55,4.95,7.09,7.29,1.1,4.76,1.51,7.76,1.6,9.64,3.99,2.36,8.66,6.94,7.13,12.94l-.7,2.76c2,.39,4.51,1.27,7.17,3.14,5.35,3.76,6.23,5.44,6.39,6.7l-5.86,1.96c-3.43-5.9-11.01-5.98-11.14-5.96l-3.76.59c-2.01.55-4.63,1.62-7,3.77-3.38,3.06-3.85,7.14-3.85,7.19l-1.26,2.98-3.53-.77c-.45-.25-3.69-1.79-10.36,1.1-7.56,3.27-9.48,7.59-9.56,7.77l-5.68-2.27c.27-.69,2.9-6.83,12.81-11.11,5.54-2.4,9.67-2.48,12.4-1.98.79-2.2,2.25-5.02,4.94-7.44,4.32-3.9,9.16-5.22,12-5.67l1.09-4.26c.93-3.64-5.51-6.79-5.58-6.82l-2.71-1.25.99-2.22c.03-.6,0-3.04-1.46-9.4-.29-1.26-1.38-2.24-3.23-2.92-5.78-2.11-16.33-.3-21.7,3.73-6.21,4.66-1.01,12.47-.79,12.8l1.02,1.5-.72,1.37c-.07.24-.33,1.21-.61,3.39-.26,2.08.4,5.16.7,6.26l13.59-3.03c.66-2.9,1.5-9.21-2.08-13.68l4.77-3.82c6.9,8.63,2.83,20.58,2.65,21.09l-.56,1.6-24,5.35c-11.32,2.52-16.82,10.82-17.26,17.93-.37,6.02,2.64,10.76,8.06,12.68,8.66,3.08,31.86,3.1,40.54-13.16,0,0,30.92,1.23,32.01-19.27.84-15.9-10.07-17.36-10.24-17.41Z"/></svg>