<svg xmlns="http://www.w3.org/2000/svg" id="Calque_1" viewBox="77.67 97.4 126.85 112.2"><defs><style>.cls-1,.cls-2,.cls-3{stroke-width:0px;}.cls-2{fill:#fff;}.cls-3{fill:#00ebe2;}</style></defs><rect class="cls-3" x="77.67" y="97.4" width="112.2" height="112.2"/><polygon class="cls-1" points="204.52 208.12 189.87 209.6 189.87 97.4 204.52 98.89 204.52 208.12"/><rect class="cls-1" x="96.95" y="113.29" width="73.64" height="17.53" rx="8.76" ry="8.76"/><rect class="cls-1" x="96.95" y="144.74" width="73.64" height="17.53" rx="8.76" ry="8.76"/><rect class="cls-1" x="96.95" y="176.18" width="73.64" height="17.53" rx="8.76" ry="8.76"/><path class="cls-2" d="M127.41,122.06c0-3.43-2.55-6.81-6.35-6.82h0s0,0,0,0h0l-6.13-.06.58.88c-2.1,1.18-3.52,3.42-3.52,6s1.36,4.72,3.39,5.92l-.45.96,6.13-.06h0c3.79,0,6.35-3.38,6.35-6.82Z"/><rect class="cls-3" x="107.64" y="115.18" width="13.75" height="13.75" rx="6.88" ry="6.88"/><path class="cls-2" d="M157.41,153.5c0-3.43-2.55-6.81-6.35-6.82h0s0,0,0,0h0l-6.13-.06.58.88c-2.1,1.18-3.52,3.42-3.52,6s1.36,4.72,3.39,5.92l-.45.96,6.13-.06h0c3.79,0,6.35-3.38,6.35-6.82Z"/><rect class="cls-3" x="137.64" y="146.62" width="13.75" height="13.75" rx="6.88" ry="6.88"/><path class="cls-2" d="M136.78,184.94c0-3.43-2.55-6.81-6.35-6.82h0s0,0,0,0h0l-6.13-.06.58.88c-2.1,1.18-3.52,3.42-3.52,6s1.36,4.72,3.39,5.92l-.45.96,6.13-.06h0c3.79,0,6.35-3.38,6.35-6.82Z"/><rect class="cls-3" x="117.01" y="178.07" width="13.75" height="13.75" rx="6.88" ry="6.88"/></svg>